# Wavefront OBJ
# Created by fragMOTION 1.3.4
# http://www.fragmosoft.com

mtllib map0.mtl
# 138 vertices
v 7 -2 0
v 0 -2 0
v 0 -2 1
v 1 -2 1
v 6 -2 1
v 7 -2 1
v 7 -2 0.875
v 0 0 1
v 0 0 0
v 7 0 0
v 7 0 1
v 6 0 1
v 1 0 1
v 8 -2 0.875
v 8 -2 0
v 8 0 0
v 8 0 1
v 8 -2 1
v 8 0 2
v 7 0 2
v 8 -2.125 1
v 7 -2.125 1
v 8 -2.25 1.25
v 8 -2.125 1.25
v 7 -2.125 1.25
v 7 -2.25 1.25
v 8 -2.375 1.5
v 8 -2.25 1.5
v 7 -2.25 1.5
v 7 -2.375 1.5
v 8 -2.5 1.75
v 8 -2.375 1.75
v 7 -2.375 1.75
v 7 -2.5 1.75
v 8 -2.625 2
v 8 -2.5 2
v 7 -2.5 2
v 7 -2.625 2
v 8 -2.75 2.25
v 8 -2.625 2.25
v 7 -2.625 2.25
v 7 -2.75 2.25
v 8 -2.875 2.5
v 8 -2.75 2.5
v 7 -2.75 2.5
v 7 -2.875 2.5
v 8 -3 2.75
v 8 -2.875 2.75
v 7 -2.875 2.75
v 7 -3 2.75
v 8 -3.125 3
v 8 -3 3
v 7 -3 3
v 7 -3.125 3
v 8 -3.25 3.25
v 8 -3.125 3.25
v 7 -3.125 3.25
v 7 -3.25 3.25
v 8 -3.375 3.5
v 8 -3.25 3.5
v 7 -3.25 3.5
v 7 -3.375 3.5
v 8 -3.5 3.75
v 8 -3.375 3.75
v 7 -3.375 3.75
v 7 -3.5 3.75
v 7 -2 1.25
v 7 -2 1.5
v 7 -2 1.75
v 7 -2 2
v 7 -2 2.25
v 7 -2 2.5
v 7 -2 2.75
v 7 -2 3
v 7 -2 3.25
v 7 -2 3.5
v 7 -2 3.75
v 7 -3.5 4
v 7 -2 4
v 7 -3 4
v 7 -1 2
v 7 -1 1
v 7 -3.625 4.25
v 8 -3.625 4.25
v 8 -3.625 4
v 7 -3.625 4
v 8 -3.75 4.25
v 7 -3.75 4.25
v 8 -3.5 4
v 7 -3.75 4.5
v 8 -3.75 4.5
v 8 -3.875 4.5
v 7 -3.875 4.5
v 7 -3.875 4.75
v 8 -3.875 4.75
v 8 -4 4.75
v 7 -4 4.75
v 7 -4 5
v 8 -4 5
v 8 -2 6
v 7 -2 6
v 7 -4 6
v 8 -4 6
v 8 -2 1.25
v 8 -2 1.5
v 8 -2 1.75
v 8 -2 2
v 8 -2 2.25
v 8 -2 2.5
v 8 -2 2.75
v 8 -2 3
v 8 -2 3.25
v 8 -2 3.5
v 8 -2 3.75
v 8 -3 4
v 8 -2 4
v 8 -3.875 5
v 8 -3.75 5
v 8 -3.625 5
v 8 -3 5
v 8 -3 6
v 7 -3.875 5
v 7 -3.75 5
v 7 -3.625 5
v 7 -3 5
v 7 -3 6
v 0 -2 2
v 0 0 2
v -3 -2 2
v -3 0 2
v 0 0 -1
v 0 -2 -1
v -3 -2 -1
v -3 0 -1
v -3 -2 1
v -3 0 1
v -3 0 0
v -3 -2 0
# 145 texture vertices
vt 3 -0.5
vt 3.5 -0.4375
vt 3.5 -0.5
vt 0.5 -0.5
vt 0 -0.5
vt 0 0
vt 3.5 0
vt 4 0
vt 4 -0.4375
vt 4 -0.5
vt 4 -1
vt 3.5 -1
vt 4 1
vt 3.5 1.0625
vt 3.5 1
vt 4 1.0625
vt 3.5 1.125
vt 4 1.125
vt 3.5 -0.625
vt 4 -0.625
vt 3.5 1.1875
vt 4 1.1875
vt 3.5 -0.75
vt 4 -0.75
vt 3.5 1.25
vt 4 1.25
vt 3.5 -0.875
vt 4 -0.875
vt 3.5 1.3125
vt 4 1.3125
vt 3.5 1.375
vt 4 1.375
vt 3.5 -1.125
vt 4 -1.125
vt 3.5 1.4375
vt 4 1.4375
vt 3.5 -1.25
vt 4 -1.25
vt 3.5 1.5
vt 4 1.5
vt 3.5 -1.375
vt 4 -1.375
vt 3.5 1.5625
vt 4 1.5625
vt 3.5 -1.5
vt 4 -1.5
vt 3.5 1.625
vt 4 1.625
vt 3.5 -1.625
vt 4 -1.625
vt 3.5 1.6875
vt 4 1.6875
vt 3.5 -1.75
vt 4 -1.75
vt 3.5 1.75
vt 4 1.75
vt 3.5 -1.875
vt 4 -1.875
vt 4 -2.125
vt 3.5 -2
vt 4 -2
vt 3.5 -2.125
vt 4 1.8125
vt 3.5 1.875
vt 3.5 1.8125
vt 4 1.875
vt 4 -2.25
vt 3.5 -2.25
vt 3.5 1.9375
vt 4 1.9375
vt 4 -2.375
vt 3.5 -2.375
vt 3.5 2
vt 4 2
vt 4 -2.5
vt 3.5 -2.5
vt 3.5 -3
vt 4 -3
vt 3 0
vt 0.5 1
vt 3 1
vt 0.5 0
vt 0 1
vt 0.625 1.0625
vt 0.625 1
vt 0.5 1.0625
vt 0.75 1
vt 0.625 1.125
vt 0.75 1.125
vt 0.875 1
vt 0.75 1.1875
vt 0.875 1.1875
vt 1 1
vt 0.875 1.25
vt 1 1.25
vt 1.125 1
vt 1 1.3125
vt 1.125 1.3125
vt 1.25 1
vt 1.125 1.375
vt 1.25 1.375
vt 1.375 1
vt 1.25 1.4375
vt 1.375 1.4375
vt 1.5 1
vt 1.375 1.5
vt 1.5 1.5
vt 1.5 1.5625
vt 1.625 1.5625
vt 1.625 1
vt 1.625 1.625
vt 1.75 1.625
vt 1.75 1
vt 1.75 1.6875
vt 1.875 1.6875
vt 1.875 1
vt 2 1.5
vt 2 1
vt 1.875 1.75
vt 2 1.75
vt 0.5 0.5
vt 1 0
vt 1 0.5
vt 3.5 0.5
vt 2.375 1.9375
vt 2.5 2
vt 2.375 2
vt 2.5 1.9375
vt 2.5 1.875
vt 2.25 1.9375
vt 2.25 1.875
vt 2.125 1.8125
vt 2.5 1.8125
vt 2.125 1.875
vt 2.5 1.5
vt 2 1.8125
vt 3 2
vt 3 1.5
vt 0.4375 1
vt -1.5 0
vt -1.5 1
vt -0.5 1
vt -0.5 0
vt -1.49012e-008 -1
vt 1 -1
# 7 normals
vn 0 1 0
vn 0 -1 0
vn 0 0 1
vn 0 -0.894427 -0.447214
vn 0 0 -1
vn 1 0 0
vn -1 0 0
usemtl mat_1
s off
f 5/1/1 6/3/1 7/2/1
f 4/4/1 5/1/1 7/2/1
f 3/5/1 4/4/1 7/2/1
f 2/6/1 3/5/1 7/2/1
f 1/7/1 2/6/1 7/2/1
f 11/3/2 12/1/2 13/4/2
f 10/7/2 11/3/2 13/4/2
f 9/6/2 10/7/2 13/4/2
f 8/5/2 9/6/2 13/4/2
f 7/2/1 14/9/1 15/8/1
f 1/7/1 7/2/1 15/8/1
f 16/8/2 17/10/2 11/3/2
f 10/7/2 16/8/2 11/3/2
f 6/3/1 18/10/1 14/9/1
f 7/2/1 6/3/1 14/9/1
f 19/11/2 20/12/2 11/3/2
f 17/10/2 19/11/2 11/3/2
f 18/13/3 6/15/3 22/14/3
f 21/16/3 18/13/3 22/14/3
f 24/16/3 25/14/3 26/17/3
f 23/18/3 24/16/3 26/17/3
f 25/19/1 24/20/1 21/10/1
f 22/3/1 25/19/1 21/10/1
f 28/18/3 29/17/3 30/21/3
f 27/22/3 28/18/3 30/21/3
f 29/23/1 28/24/1 23/20/1
f 26/19/1 29/23/1 23/20/1
f 32/22/3 33/21/3 34/25/3
f 31/26/3 32/22/3 34/25/3
f 33/27/1 32/28/1 27/24/1
f 30/23/1 33/27/1 27/24/1
f 36/26/3 37/25/3 38/29/3
f 35/30/3 36/26/3 38/29/3
f 37/12/1 36/11/1 31/28/1
f 34/27/1 37/12/1 31/28/1
f 40/30/3 41/29/3 42/31/3
f 39/32/3 40/30/3 42/31/3
f 41/33/1 40/34/1 35/11/1
f 38/12/1 41/33/1 35/11/1
f 44/32/3 45/31/3 46/35/3
f 43/36/3 44/32/3 46/35/3
f 45/37/1 44/38/1 39/34/1
f 42/33/1 45/37/1 39/34/1
f 48/36/3 49/35/3 50/39/3
f 47/40/3 48/36/3 50/39/3
f 49/41/1 48/42/1 43/38/1
f 46/37/1 49/41/1 43/38/1
f 52/40/3 53/39/3 54/43/3
f 51/44/3 52/40/3 54/43/3
f 53/45/1 52/46/1 47/42/1
f 50/41/1 53/45/1 47/42/1
f 56/44/3 57/43/3 58/47/3
f 55/48/3 56/44/3 58/47/3
f 57/49/1 56/50/1 51/46/1
f 54/45/1 57/49/1 51/46/1
f 60/48/3 61/47/3 62/51/3
f 59/52/3 60/48/3 62/51/3
f 61/53/1 60/54/1 55/50/1
f 58/49/1 61/53/1 55/50/1
f 64/52/3 65/51/3 66/55/3
f 63/56/3 64/52/3 66/55/3
f 65/57/1 64/58/1 59/54/1
f 62/53/1 65/57/1 59/54/1
f 84/59/1 85/61/1 86/60/1
f 83/62/1 84/59/1 86/60/1
f 84/63/3 83/65/3 88/64/3
f 87/66/3 84/63/3 88/64/3
f 89/61/1 63/58/1 66/57/1
f 78/60/1 89/61/1 66/57/1
f 89/56/3 78/55/3 86/65/3
f 85/63/3 89/56/3 86/65/3
f 91/67/1 87/59/1 88/62/1
f 90/68/1 91/67/1 88/62/1
f 91/66/3 90/64/3 93/69/3
f 92/70/3 91/66/3 93/69/3
f 95/71/1 92/67/1 93/68/1
f 94/72/1 95/71/1 93/68/1
f 95/70/3 94/69/3 97/73/3
f 96/74/3 95/70/3 97/73/3
f 99/75/1 96/71/1 97/72/1
f 98/76/1 99/75/1 97/72/1
f 19/11/4 100/78/4 101/77/4
f 20/12/4 19/11/4 101/77/4
f 102/77/1 103/78/1 99/75/1
f 98/76/1 102/77/1 99/75/1
f 127/122/5 127/122/5 127/122/5
s 1
f 127/122/1 133/144/1 129/6/1
f 133/144/1 127/122/1 132/145/1
f 128/122/2 130/6/2 131/145/2
f 130/6/2 134/144/2 131/145/2
usemtl mat_2
s off
f 12/79/5 5/81/5 4/80/5
f 13/82/5 12/79/5 4/80/5
f 10/7/3 9/6/3 2/83/3
f 1/15/3 10/7/3 2/83/3
f 6/80/6 67/85/6 25/84/6
f 22/86/6 6/80/6 25/84/6
f 25/84/6 67/85/6 68/87/6
f 26/88/6 25/84/6 68/87/6
f 29/89/6 26/88/6 68/87/6
f 29/89/6 68/87/6 69/90/6
f 30/91/6 29/89/6 69/90/6
f 33/92/6 30/91/6 69/90/6
f 33/92/6 69/90/6 70/93/6
f 34/94/6 33/92/6 70/93/6
f 37/95/6 34/94/6 70/93/6
f 37/95/6 70/93/6 71/96/6
f 38/97/6 37/95/6 71/96/6
f 41/98/6 38/97/6 71/96/6
f 41/98/6 71/96/6 72/99/6
f 42/100/6 41/98/6 72/99/6
f 45/101/6 42/100/6 72/99/6
f 45/101/6 72/99/6 73/102/6
f 46/103/6 45/101/6 73/102/6
f 49/104/6 46/103/6 73/102/6
f 49/104/6 73/102/6 74/105/6
f 50/106/6 49/104/6 74/105/6
f 53/107/6 50/106/6 74/105/6
f 54/108/6 53/107/6 74/105/6
f 57/109/6 54/108/6 74/105/6
f 75/110/6 57/109/6 74/105/6
f 58/111/6 57/109/6 75/110/6
f 61/112/6 58/111/6 75/110/6
f 76/113/6 61/112/6 75/110/6
f 62/114/6 61/112/6 76/113/6
f 65/115/6 62/114/6 76/113/6
f 77/116/6 65/115/6 76/113/6
f 77/116/6 79/118/6 80/117/6
f 65/115/6 77/116/6 80/117/6
f 66/119/6 65/115/6 80/117/6
f 78/120/6 66/119/6 80/117/6
f 82/121/6 11/82/6 20/122/6
f 81/123/6 82/121/6 20/122/6
f 67/85/6 6/80/6 82/121/6
f 68/87/6 67/85/6 82/121/6
f 69/90/6 68/87/6 82/121/6
f 70/93/6 69/90/6 82/121/6
f 81/123/6 70/93/6 82/121/6
f 12/79/5 11/7/5 82/124/5
f 5/81/5 12/79/5 82/124/5
f 6/15/5 5/81/5 82/124/5
f 104/85/7 18/80/7 21/86/7
f 24/84/7 104/85/7 21/86/7
f 23/88/7 28/89/7 105/87/7
f 24/84/7 23/88/7 105/87/7
f 104/85/7 24/84/7 105/87/7
f 27/91/7 32/92/7 106/90/7
f 28/89/7 27/91/7 106/90/7
f 105/87/7 28/89/7 106/90/7
f 31/94/7 36/95/7 107/93/7
f 32/92/7 31/94/7 107/93/7
f 106/90/7 32/92/7 107/93/7
f 35/97/7 40/98/7 108/96/7
f 36/95/7 35/97/7 108/96/7
f 107/93/7 36/95/7 108/96/7
f 39/100/7 44/101/7 109/99/7
f 40/98/7 39/100/7 109/99/7
f 108/96/7 40/98/7 109/99/7
f 43/103/7 48/104/7 110/102/7
f 44/101/7 43/103/7 110/102/7
f 109/99/7 44/101/7 110/102/7
f 47/106/7 52/107/7 111/105/7
f 48/104/7 47/106/7 111/105/7
f 110/102/7 48/104/7 111/105/7
f 51/108/7 56/109/7 112/110/7
f 52/107/7 51/108/7 112/110/7
f 111/105/7 52/107/7 112/110/7
f 55/111/7 60/112/7 113/113/7
f 56/109/7 55/111/7 113/113/7
f 112/110/7 56/109/7 113/113/7
f 59/114/7 64/115/7 114/116/7
f 60/112/7 59/114/7 114/116/7
f 113/113/7 60/112/7 114/116/7
f 89/120/7 115/117/7 116/118/7
f 63/119/7 89/120/7 116/118/7
f 64/115/7 63/119/7 116/118/7
f 114/116/7 64/115/7 116/118/7
f 95/125/7 96/127/7 99/126/7
f 117/128/7 95/125/7 99/126/7
f 95/125/7 117/128/7 118/129/7
f 92/130/7 95/125/7 118/129/7
f 91/131/7 92/130/7 118/129/7
f 118/129/7 119/133/7 84/132/7
f 91/131/7 118/129/7 84/132/7
f 87/134/7 91/131/7 84/132/7
f 120/135/7 115/117/7 89/120/7
f 119/133/7 120/135/7 89/120/7
f 84/132/7 119/133/7 89/120/7
f 85/136/7 84/132/7 89/120/7
f 117/128/7 99/126/7 103/137/7
f 118/129/7 117/128/7 103/137/7
f 119/133/7 118/129/7 103/137/7
f 120/135/7 119/133/7 103/137/7
f 121/138/7 120/135/7 103/137/7
f 120/135/7 121/138/7 100/81/7
f 115/117/7 120/135/7 100/81/7
f 116/118/7 115/117/7 100/81/7
f 122/128/6 98/126/6 97/127/6
f 94/125/6 122/128/6 97/127/6
f 93/130/6 90/131/6 123/129/6
f 94/125/6 93/130/6 123/129/6
f 122/128/6 94/125/6 123/129/6
f 88/134/6 83/132/6 124/133/6
f 90/131/6 88/134/6 124/133/6
f 123/129/6 90/131/6 124/133/6
f 78/120/6 80/117/6 125/135/6
f 86/136/6 78/120/6 125/135/6
f 83/132/6 86/136/6 125/135/6
f 124/133/6 83/132/6 125/135/6
f 125/135/6 126/138/6 102/137/6
f 124/133/6 125/135/6 102/137/6
f 123/129/6 124/133/6 102/137/6
f 122/128/6 123/129/6 102/137/6
f 98/126/6 122/128/6 102/137/6
f 80/117/6 79/118/6 101/81/6
f 125/135/6 80/117/6 101/81/6
f 126/138/6 125/135/6 101/81/6
f 73/102/6 72/99/6 71/96/6
f 74/105/6 73/102/6 71/96/6
f 75/110/6 74/105/6 71/96/6
f 76/113/6 75/110/6 71/96/6
f 77/116/6 76/113/6 71/96/6
f 79/118/6 77/116/6 71/96/6
f 101/81/6 79/118/6 71/96/6
f 20/122/6 101/81/6 71/96/6
f 81/123/6 20/122/6 71/96/6
f 70/93/6 81/123/6 71/96/6
f 16/8/3 10/7/3 1/15/3
f 15/13/3 16/8/3 1/15/3
f 114/116/7 116/118/7 100/81/7
f 113/113/7 114/116/7 100/81/7
f 112/110/7 113/113/7 100/81/7
f 111/105/7 112/110/7 100/81/7
f 110/102/7 111/105/7 100/81/7
f 109/99/7 110/102/7 100/81/7
f 108/96/7 109/99/7 100/81/7
f 107/93/7 108/96/7 100/81/7
f 19/122/7 107/93/7 100/81/7
f 106/90/7 107/93/7 19/122/7
f 105/87/7 106/90/7 19/122/7
f 104/85/7 105/87/7 19/122/7
f 18/80/7 104/85/7 19/122/7
f 17/82/7 18/80/7 19/122/7
f 18/80/7 17/82/7 16/6/7
f 14/139/7 18/80/7 16/6/7
f 15/83/7 14/139/7 16/6/7
s 1
f 3/83/5 8/6/5 4/142/5
f 13/143/5 4/142/5 8/6/5
usemtl mat_5
s off
f 128/122/7 8/82/7 3/80/7
f 127/93/7 128/122/7 3/80/7
f 128/6/5 127/83/5 127/83/5
f 130/140/5 128/6/5 127/83/5
f 129/141/5 130/140/5 127/83/5
f 9/6/7 131/143/7 132/142/7
f 2/83/7 9/6/7 132/142/7
f 132/83/3 131/6/3 134/140/3
f 133/141/3 132/83/3 134/140/3
f 133/141/3 133/141/3 134/140/3
f 130/122/6 129/93/6 129/93/6
f 136/82/6 130/122/6 129/93/6
f 135/80/6 136/82/6 129/93/6
f 137/6/6 138/83/6 133/142/6
f 134/143/6 137/6/6 133/142/6
