# Wavefront OBJ
# Created by fragMOTION 1.3.4
# http://www.fragmosoft.com

mtllib map1.mtl
# 175 vertices
v 7 -2 0
v 5 -2 0
v 5 -2 1
v 6 -2 1
v 7 -2 1
v 7 -2 0.875
v 4 -2 1
v 4 -2 0
v 0 -2 0
v 0 -2 1
v 1 -2 1
v 3 -2 1
v 5 0 1
v 5 0 0
v 7 0 0
v 7 0 1
v 6 0 1
v 0 0 1
v 0 0 0
v 4 0 0
v 4 0 1
v 3 0 1
v 1 0 1
v 3 -1 1
v 1 -1 1
v 8 -2 0.875
v 8 -2 0
v 8 0 0
v 8 0 1
v 8 -2 1
v 8 0 2
v 7 0 2
v 8 -2.125 1
v 7 -2.125 1
v 8 -2.25 1.25
v 8 -2.125 1.25
v 7 -2.125 1.25
v 7 -2.25 1.25
v 8 -2.375 1.5
v 8 -2.25 1.5
v 7 -2.25 1.5
v 7 -2.375 1.5
v 8 -2.5 1.75
v 8 -2.375 1.75
v 7 -2.375 1.75
v 7 -2.5 1.75
v 8 -2.625 2
v 8 -2.5 2
v 7 -2.5 2
v 7 -2.625 2
v 8 -2.75 2.25
v 8 -2.625 2.25
v 7 -2.625 2.25
v 7 -2.75 2.25
v 8 -2.875 2.5
v 8 -2.75 2.5
v 7 -2.75 2.5
v 7 -2.875 2.5
v 8 -3 2.75
v 8 -2.875 2.75
v 7 -2.875 2.75
v 7 -3 2.75
v 8 -3.125 3
v 8 -3 3
v 7 -3 3
v 7 -3.125 3
v 8 -3.25 3.25
v 8 -3.125 3.25
v 7 -3.125 3.25
v 7 -3.25 3.25
v 8 -3.375 3.5
v 8 -3.25 3.5
v 7 -3.25 3.5
v 7 -3.375 3.5
v 8 -3.5 3.75
v 8 -3.375 3.75
v 7 -3.375 3.75
v 7 -3.5 3.75
v 7 -2 1.25
v 7 -2 1.5
v 7 -2 1.75
v 7 -2 2
v 7 -2 2.25
v 7 -2 2.5
v 7 -2 2.75
v 7 -2 3
v 7 -2 3.25
v 7 -2 3.5
v 7 -2 3.75
v 7 -3.5 4
v 7 -2 4
v 7 -3 4
v 7 -1 2
v 7 -1 1
v 7 -3.625 4.25
v 8 -3.625 4.25
v 8 -3.625 4
v 7 -3.625 4
v 8 -3.75 4.25
v 7 -3.75 4.25
v 8 -3.5 4
v 7 -3.75 4.5
v 8 -3.75 4.5
v 8 -3.875 4.5
v 7 -3.875 4.5
v 7 -3.875 4.75
v 8 -3.875 4.75
v 8 -4 4.75
v 7 -4 4.75
v 7 -4 5
v 8 -4 5
v 7 -2 6
v 7 -1 4
v 8 -2 6
v 7 -4 6
v 8 -4 6
v 8 -2 1.25
v 8 -2 1.5
v 8 -2 1.75
v 8 -2 2
v 8 -2 2.25
v 8 -2 2.5
v 8 -2 2.75
v 8 -2 3
v 8 -2 3.25
v 8 -2 3.5
v 8 -2 3.75
v 8 -3 4
v 8 -2 4
v 8 -3.875 5
v 8 -3.75 5
v 8 -3.625 5
v 8 -3 5
v 8 -3 6
v 7 -3.875 5
v 7 -3.75 5
v 7 -3.625 5
v 7 -3 5
v 7 -3 6
v 3 -2 2
v 3 -2 4
v 6 -2 4
v 6 -2 2
v 5 -2 2
v 4 -2 2
v 6 0 4
v 3 0 4
v 3 0 2
v 4 0 2
v 5 0 2
v 6 0 2
v 4 0 1.25
v 4 -2 1.25
v 4 0 1.125
v 4 -2 1.125
v 5 -2 1.25
v 5 0 1.25
v 5 -2 1.125
v 5 0 1.125
v 4.25 0 1.25
v 4.75 0 1.25
v 4.75 0 1.125
v 4.25 0 1.125
v 4.75 -0.25 1.125
v 4.25 -0.25 1.125
v 4.75 -0.75 1.125
v 4.75 -2 1.125
v 4.25 -2 1.125
v 4.25 -0.75 1.125
v 4.25 -0.25 1.25
v 4.75 -0.25 1.25
v 4.25 -0.75 1.25
v 4.25 -2 1.25
v 4.75 -2 1.25
v 4.75 -0.75 1.25
# 177 texture vertices
vt 3 -0.5
vt 3.5 -0.4375
vt 3.5 -0.5
vt 2.5 -0.5
vt 2.5 0
vt 3.5 0
vt 0 -0.5
vt 1.5 -0.5
vt 0.5 -0.5
vt 0 0
vt 2 0
vt 2 -0.5
vt 1.5 0
vt 0.5 0.5
vt 1.5 0.5
vt 0.5 0
vt 0.5 1
vt 1.5 1
vt 3.5 1
vt 2.5 1
vt 0 1
vt 2 1
vt 4 0
vt 4 -0.4375
vt 4 -0.5
vt 4 -1
vt 3.5 -1
vt 4 1
vt 3.5 1.0625
vt 4 1.0625
vt 3.5 1.125
vt 4 1.125
vt 3.5 -0.625
vt 4 -0.625
vt 3.5 1.1875
vt 4 1.1875
vt 3.5 -0.75
vt 4 -0.75
vt 3.5 1.25
vt 4 1.25
vt 3.5 -0.875
vt 4 -0.875
vt 3.5 1.3125
vt 4 1.3125
vt 3.5 1.375
vt 4 1.375
vt 3.5 -1.125
vt 4 -1.125
vt 3.5 1.4375
vt 4 1.4375
vt 3.5 -1.25
vt 4 -1.25
vt 3.5 1.5
vt 4 1.5
vt 3.5 -1.375
vt 4 -1.375
vt 3.5 1.5625
vt 4 1.5625
vt 3.5 -1.5
vt 4 -1.5
vt 3.5 1.625
vt 4 1.625
vt 3.5 -1.625
vt 4 -1.625
vt 3.5 1.6875
vt 4 1.6875
vt 3.5 -1.75
vt 4 -1.75
vt 3.5 1.75
vt 4 1.75
vt 3.5 -1.875
vt 4 -1.875
vt 0.625 1.0625
vt 0.625 1
vt 0.5 1.0625
vt 0.75 1
vt 0.625 1.125
vt 0.75 1.125
vt 0.875 1
vt 0.75 1.1875
vt 0.875 1.1875
vt 1 1
vt 0.875 1.25
vt 1 1.25
vt 1.125 1
vt 1 1.3125
vt 1.125 1.3125
vt 1.25 1
vt 1.125 1.375
vt 1.25 1.375
vt 1.375 1
vt 1.25 1.4375
vt 1.375 1.4375
vt 1.375 1.5
vt 1.5 1.5
vt 1.5 1.5625
vt 1.625 1.5625
vt 1.625 1
vt 1.625 1.625
vt 1.75 1.625
vt 1.75 1
vt 1.75 1.6875
vt 1.875 1.6875
vt 1.875 1
vt 2 1.5
vt 1.875 1.75
vt 2 1.75
vt 1 0
vt 1 0.5
vt 3 0
vt 3.5 0.5
vt 3 1
vt 4 -2.125
vt 3.5 -2
vt 4 -2
vt 3.5 -2.125
vt 4 1.8125
vt 3.5 1.875
vt 3.5 1.8125
vt 4 1.875
vt 4 -2.25
vt 3.5 -2.25
vt 3.5 1.9375
vt 4 1.9375
vt 4 -2.375
vt 3.5 -2.375
vt 3.5 2
vt 4 2
vt 4 -2.5
vt 3.5 -2.5
vt 4 -3
vt 3.5 -3
vt 2.375 1.9375
vt 2.5 2
vt 2.375 2
vt 2.5 1.9375
vt 2.5 1.875
vt 2.25 1.9375
vt 2.25 1.875
vt 2.125 1.8125
vt 2.5 1.8125
vt 2.125 1.875
vt 2.5 1.5
vt 2 1.8125
vt 3 2
vt 3 1.5
vt 2 0.5
vt 0.4375 1
vt 3 -1
vt 2 -1
vt 2.5 -1
vt 3 -2
vt 1.5 -2
vt 1.5 -1
vt 0.625 0
vt 0.5625 0
vt 0.5625 1
vt 2.375 -0.625
vt 2.5 -0.625
vt 2.125 -0.625
vt 2 -0.625
vt 2 -0.5625
vt 2.125 -0.5625
vt 2.375 -0.5625
vt 2.5 -0.5625
vt 2.375 0
vt 2.125 0.125
vt 2.375 0.125
vt 2.125 0
vt 2.375 1
vt 2.125 0.375
vt 2.125 1
vt 2.375 0.375
vt 0.5625 0.125
vt 0.625 0.375
vt 0.625 0.125
vt 0.5625 0.375
# 7 normals
vn 0 1 0
vn 0 -1 0
vn 0 0 -1
vn 0 0 1
vn 1 0 0
vn 0 -0.894427 -0.447214
vn -1 0 0
usemtl mat_1
g Group
s off
f 4/1/1 5/3/1 6/2/1
f 3/4/1 4/1/1 6/2/1
f 2/5/1 3/4/1 6/2/1
f 1/6/1 2/5/1 6/2/1
f 10/7/1 11/9/1 12/8/1
f 9/10/1 10/7/1 12/8/1
f 8/11/1 9/10/1 12/8/1
f 7/12/1 8/11/1 12/8/1
f 15/6/2 16/3/2 17/1/2
f 14/5/2 15/6/2 17/1/2
f 13/4/2 14/5/2 17/1/2
f 21/12/2 22/8/2 23/9/2
f 20/11/2 21/12/2 23/9/2
f 19/10/2 20/11/2 23/9/2
f 18/7/2 19/10/2 23/9/2
f 6/2/1 26/24/1 27/23/1
f 1/6/1 6/2/1 27/23/1
f 28/23/2 29/25/2 16/3/2
f 15/6/2 28/23/2 16/3/2
f 5/3/1 30/25/1 26/24/1
f 6/2/1 5/3/1 26/24/1
f 31/26/2 32/27/2 16/3/2
f 29/25/2 31/26/2 16/3/2
f 30/28/4 5/19/4 34/29/4
f 33/30/4 30/28/4 34/29/4
f 36/30/4 37/29/4 38/31/4
f 35/32/4 36/30/4 38/31/4
f 37/33/1 36/34/1 33/25/1
f 34/3/1 37/33/1 33/25/1
f 40/32/4 41/31/4 42/35/4
f 39/36/4 40/32/4 42/35/4
f 41/37/1 40/38/1 35/34/1
f 38/33/1 41/37/1 35/34/1
f 44/36/4 45/35/4 46/39/4
f 43/40/4 44/36/4 46/39/4
f 45/41/1 44/42/1 39/38/1
f 42/37/1 45/41/1 39/38/1
f 48/40/4 49/39/4 50/43/4
f 47/44/4 48/40/4 50/43/4
f 49/27/1 48/26/1 43/42/1
f 46/41/1 49/27/1 43/42/1
f 52/44/4 53/43/4 54/45/4
f 51/46/4 52/44/4 54/45/4
f 53/47/1 52/48/1 47/26/1
f 50/27/1 53/47/1 47/26/1
f 56/46/4 57/45/4 58/49/4
f 55/50/4 56/46/4 58/49/4
f 57/51/1 56/52/1 51/48/1
f 54/47/1 57/51/1 51/48/1
f 60/50/4 61/49/4 62/53/4
f 59/54/4 60/50/4 62/53/4
f 61/55/1 60/56/1 55/52/1
f 58/51/1 61/55/1 55/52/1
f 64/54/4 65/53/4 66/57/4
f 63/58/4 64/54/4 66/57/4
f 65/59/1 64/60/1 59/56/1
f 62/55/1 65/59/1 59/56/1
f 68/58/4 69/57/4 70/61/4
f 67/62/4 68/58/4 70/61/4
f 69/63/1 68/64/1 63/60/1
f 66/59/1 69/63/1 63/60/1
f 72/62/4 73/61/4 74/65/4
f 71/66/4 72/62/4 74/65/4
f 73/67/1 72/68/1 67/64/1
f 70/63/1 73/67/1 67/64/1
f 76/66/4 77/65/4 78/69/4
f 75/70/4 76/66/4 78/69/4
f 77/71/1 76/72/1 71/68/1
f 74/67/1 77/71/1 71/68/1
f 96/113/1 97/115/1 98/114/1
f 95/116/1 96/113/1 98/114/1
f 96/117/4 95/119/4 100/118/4
f 99/120/4 96/117/4 100/118/4
f 101/115/1 75/72/1 78/71/1
f 90/114/1 101/115/1 78/71/1
f 101/70/4 90/69/4 98/119/4
f 97/117/4 101/70/4 98/119/4
f 103/121/1 99/113/1 100/116/1
f 102/122/1 103/121/1 100/116/1
f 103/120/4 102/118/4 105/123/4
f 104/124/4 103/120/4 105/123/4
f 107/125/1 104/121/1 105/122/1
f 106/126/1 107/125/1 105/122/1
f 107/124/4 106/123/4 109/127/4
f 108/128/4 107/124/4 109/127/4
f 111/129/1 108/125/1 109/126/1
f 110/130/1 111/129/1 109/126/1
f 32/27/6 31/26/6 114/131/6
f 113/114/6 32/27/6 114/131/6
f 112/132/6 113/114/6 114/131/6
f 115/132/1 116/131/1 111/129/1
f 110/130/1 115/132/1 111/129/1
f 143/149/1 144/151/1 145/150/1
f 142/152/1 143/149/1 145/150/1
f 141/153/1 142/152/1 145/150/1
f 140/154/1 141/153/1 145/150/1
f 149/150/2 150/151/2 151/149/2
f 148/154/2 149/150/2 151/149/2
f 147/153/2 148/154/2 151/149/2
f 146/152/2 147/153/2 151/149/2
f 153/161/1 145/150/1 144/151/1
f 173/160/1 153/161/1 144/151/1
f 174/158/1 173/160/1 144/151/1
f 156/159/1 174/158/1 144/151/1
f 168/163/1 167/164/1 158/165/1
f 155/162/1 168/163/1 158/165/1
f 7/12/1 155/162/1 158/165/1
f 3/4/1 7/12/1 158/165/1
f 3/4/1 2/5/1 8/11/1
f 7/12/1 3/4/1 8/11/1
f 13/4/2 21/12/2 20/11/2
f 14/5/2 13/4/2 20/11/2
usemtl mat_2
g Group
s off
f 22/13/3 24/15/3 25/14/3
f 23/16/3 22/13/3 25/14/3
f 11/17/3 25/14/3 24/15/3
f 12/18/3 11/17/3 24/15/3
f 1/19/4 15/6/4 14/5/4
f 2/20/4 1/19/4 14/5/4
f 20/11/4 19/10/4 9/21/4
f 8/22/4 20/11/4 9/21/4
f 18/16/5 10/17/5 9/21/5
f 19/10/5 18/16/5 9/21/5
f 5/17/5 79/74/5 37/73/5
f 34/75/5 5/17/5 37/73/5
f 37/73/5 79/74/5 80/76/5
f 38/77/5 37/73/5 80/76/5
f 41/78/5 38/77/5 80/76/5
f 41/78/5 80/76/5 81/79/5
f 42/80/5 41/78/5 81/79/5
f 45/81/5 42/80/5 81/79/5
f 45/81/5 81/79/5 82/82/5
f 46/83/5 45/81/5 82/82/5
f 49/84/5 46/83/5 82/82/5
f 49/84/5 82/82/5 83/85/5
f 50/86/5 49/84/5 83/85/5
f 53/87/5 50/86/5 83/85/5
f 53/87/5 83/85/5 84/88/5
f 54/89/5 53/87/5 84/88/5
f 57/90/5 54/89/5 84/88/5
f 57/90/5 84/88/5 85/91/5
f 58/92/5 57/90/5 85/91/5
f 61/93/5 58/92/5 85/91/5
f 61/93/5 85/91/5 86/18/5
f 62/94/5 61/93/5 86/18/5
f 65/95/5 62/94/5 86/18/5
f 66/96/5 65/95/5 86/18/5
f 69/97/5 66/96/5 86/18/5
f 87/98/5 69/97/5 86/18/5
f 70/99/5 69/97/5 87/98/5
f 73/100/5 70/99/5 87/98/5
f 88/101/5 73/100/5 87/98/5
f 74/102/5 73/100/5 88/101/5
f 77/103/5 74/102/5 88/101/5
f 89/104/5 77/103/5 88/101/5
f 89/104/5 91/22/5 92/105/5
f 77/103/5 89/104/5 92/105/5
f 78/106/5 77/103/5 92/105/5
f 90/107/5 78/106/5 92/105/5
f 94/14/5 16/16/5 32/108/5
f 93/109/5 94/14/5 32/108/5
f 79/74/5 5/17/5 94/14/5
f 80/76/5 79/74/5 94/14/5
f 81/79/5 80/76/5 94/14/5
f 82/82/5 81/79/5 94/14/5
f 93/109/5 82/82/5 94/14/5
f 17/110/3 16/6/3 94/111/3
f 4/112/3 17/110/3 94/111/3
f 5/19/3 4/112/3 94/111/3
f 117/74/7 30/17/7 33/75/7
f 36/73/7 117/74/7 33/75/7
f 35/77/7 40/78/7 118/76/7
f 36/73/7 35/77/7 118/76/7
f 117/74/7 36/73/7 118/76/7
f 39/80/7 44/81/7 119/79/7
f 40/78/7 39/80/7 119/79/7
f 118/76/7 40/78/7 119/79/7
f 43/83/7 48/84/7 120/82/7
f 44/81/7 43/83/7 120/82/7
f 119/79/7 44/81/7 120/82/7
f 47/86/7 52/87/7 121/85/7
f 48/84/7 47/86/7 121/85/7
f 120/82/7 48/84/7 121/85/7
f 51/89/7 56/90/7 122/88/7
f 52/87/7 51/89/7 122/88/7
f 121/85/7 52/87/7 122/88/7
f 55/92/7 60/93/7 123/91/7
f 56/90/7 55/92/7 123/91/7
f 122/88/7 56/90/7 123/91/7
f 59/94/7 64/95/7 124/18/7
f 60/93/7 59/94/7 124/18/7
f 123/91/7 60/93/7 124/18/7
f 63/96/7 68/97/7 125/98/7
f 64/95/7 63/96/7 125/98/7
f 124/18/7 64/95/7 125/98/7
f 67/99/7 72/100/7 126/101/7
f 68/97/7 67/99/7 126/101/7
f 125/98/7 68/97/7 126/101/7
f 71/102/7 76/103/7 127/104/7
f 72/100/7 71/102/7 127/104/7
f 126/101/7 72/100/7 127/104/7
f 101/107/7 128/105/7 129/22/7
f 75/106/7 101/107/7 129/22/7
f 76/103/7 75/106/7 129/22/7
f 127/104/7 76/103/7 129/22/7
f 107/133/7 108/135/7 111/134/7
f 130/136/7 107/133/7 111/134/7
f 107/133/7 130/136/7 131/137/7
f 104/138/7 107/133/7 131/137/7
f 103/139/7 104/138/7 131/137/7
f 131/137/7 132/141/7 96/140/7
f 103/139/7 131/137/7 96/140/7
f 99/142/7 103/139/7 96/140/7
f 133/143/7 128/105/7 101/107/7
f 132/141/7 133/143/7 101/107/7
f 96/140/7 132/141/7 101/107/7
f 97/144/7 96/140/7 101/107/7
f 130/136/7 111/134/7 116/145/7
f 131/137/7 130/136/7 116/145/7
f 132/141/7 131/137/7 116/145/7
f 133/143/7 132/141/7 116/145/7
f 134/146/7 133/143/7 116/145/7
f 133/143/7 134/146/7 114/112/7
f 128/105/7 133/143/7 114/112/7
f 129/22/7 128/105/7 114/112/7
f 135/136/5 110/134/5 109/135/5
f 106/133/5 135/136/5 109/135/5
f 105/138/5 102/139/5 136/137/5
f 106/133/5 105/138/5 136/137/5
f 135/136/5 106/133/5 136/137/5
f 100/142/5 95/140/5 137/141/5
f 102/139/5 100/142/5 137/141/5
f 136/137/5 102/139/5 137/141/5
f 90/107/5 92/105/5 138/143/5
f 98/144/5 90/107/5 138/143/5
f 95/140/5 98/144/5 138/143/5
f 137/141/5 95/140/5 138/143/5
f 138/143/5 139/146/5 115/145/5
f 137/141/5 138/143/5 115/145/5
f 136/137/5 137/141/5 115/145/5
f 135/136/5 136/137/5 115/145/5
f 110/134/5 135/136/5 115/145/5
f 92/105/5 91/22/5 112/112/5
f 138/143/5 92/105/5 112/112/5
f 139/146/5 138/143/5 112/112/5
f 113/147/5 112/112/5 91/22/5
f 28/23/4 15/6/4 1/19/4
f 27/28/4 28/23/4 1/19/4
f 127/104/7 129/22/7 114/112/7
f 126/101/7 127/104/7 114/112/7
f 125/98/7 126/101/7 114/112/7
f 124/18/7 125/98/7 114/112/7
f 123/91/7 124/18/7 114/112/7
f 122/88/7 123/91/7 114/112/7
f 121/85/7 122/88/7 114/112/7
f 120/82/7 121/85/7 114/112/7
f 31/108/7 120/82/7 114/112/7
f 119/79/7 120/82/7 31/108/7
f 118/76/7 119/79/7 31/108/7
f 117/74/7 118/76/7 31/108/7
f 30/17/7 117/74/7 31/108/7
f 29/16/7 30/17/7 31/108/7
f 30/17/7 29/16/7 28/10/7
f 26/148/7 30/17/7 28/10/7
f 27/21/7 26/148/7 28/10/7
f 146/110/3 142/112/3 141/18/3
f 147/13/3 146/110/3 141/18/3
f 147/11/5 141/22/5 140/82/5
f 148/108/5 147/11/5 140/82/5
f 22/13/3 21/11/3 7/22/3
f 24/15/3 22/13/3 7/22/3
f 12/18/3 24/15/3 7/22/3
f 149/11/4 148/13/4 140/18/4
f 145/22/4 149/11/4 140/18/4
f 17/110/3 4/112/3 3/20/3
f 13/5/3 17/110/3 3/20/3
f 151/110/4 150/5/4 144/20/4
f 143/112/4 151/110/4 144/20/4
f 146/11/7 151/108/7 143/82/7
f 142/22/7 146/11/7 143/82/7
f 85/91/5 84/88/5 83/85/5
f 86/18/5 85/91/5 83/85/5
f 87/98/5 86/18/5 83/85/5
f 88/101/5 87/98/5 83/85/5
f 89/104/5 88/101/5 83/85/5
f 91/22/5 89/104/5 83/85/5
f 113/147/5 91/22/5 83/85/5
f 32/108/5 113/147/5 83/85/5
f 93/109/5 32/108/5 83/85/5
f 82/82/5 93/109/5 83/85/5
f 149/108/5 145/82/5 153/74/5
f 152/155/5 149/108/5 153/74/5
f 154/156/5 155/157/5 7/17/5
f 21/16/5 154/156/5 7/17/5
f 144/82/7 150/108/7 157/155/7
f 156/74/7 144/82/7 157/155/7
f 158/157/7 159/156/7 13/16/7
f 3/17/7 158/157/7 13/16/7
f 161/158/2 157/159/2 150/151/2
f 160/160/2 161/158/2 150/151/2
f 152/161/2 160/160/2 150/151/2
f 149/150/2 152/161/2 150/151/2
f 154/162/2 21/12/2 13/4/2
f 163/163/2 154/162/2 13/4/2
f 162/164/2 163/163/2 13/4/2
f 159/165/2 162/164/2 13/4/2
f 2/20/4 14/5/4 20/11/4
f 8/22/4 2/20/4 20/11/4
f 162/166/3 164/168/3 165/167/3
f 163/169/3 162/166/3 165/167/3
f 167/170/3 168/172/3 169/171/3
f 166/173/3 167/170/3 169/171/3
f 162/166/3 159/5/3 158/20/3
f 164/168/3 162/166/3 158/20/3
f 166/173/3 164/168/3 158/20/3
f 167/170/3 166/173/3 158/20/3
f 163/169/3 165/167/3 169/171/3
f 154/11/3 163/169/3 169/171/3
f 155/22/3 154/11/3 169/171/3
f 168/172/3 155/22/3 169/171/3
f 160/169/4 170/167/4 171/168/4
f 161/166/4 160/169/4 171/168/4
f 173/172/4 174/170/4 175/173/4
f 172/171/4 173/172/4 175/173/4
f 161/166/4 171/168/4 175/173/4
f 157/5/4 161/166/4 175/173/4
f 156/20/4 157/5/4 175/173/4
f 174/170/4 156/20/4 175/173/4
f 160/169/4 152/11/4 153/22/4
f 170/167/4 160/169/4 153/22/4
f 172/171/4 170/167/4 153/22/4
f 173/172/4 172/171/4 153/22/4
f 165/174/5 170/176/5 172/175/5
f 169/177/5 165/174/5 172/175/5
f 175/175/7 171/176/7 164/174/7
f 166/177/7 175/175/7 164/174/7
f 172/160/1 175/158/1 166/164/1
f 169/163/1 172/160/1 166/164/1
f 164/164/2 171/158/2 170/160/2
f 165/163/2 164/164/2 170/160/2
