# Wavefront OBJ
# Created by fragMOTION 1.3.4
# http://www.fragmosoft.com

mtllib map5.mtl
# 174 vertices
v 7 -2 0
v 7 -2 0.875
v 8 -2 0.875
v 8 -2 0
v 7 0 0
v 8 0 0
v 8 0 1
v 7 0 1
v 7 -2 1
v 8 -2 1
v 8 0 2
v 7 0 2
v 8 -2.125 1
v 7 -2.125 1
v 8 -2.25 1.25
v 8 -2.125 1.25
v 7 -2.125 1.25
v 7 -2.25 1.25
v 8 -2.375 1.5
v 8 -2.25 1.5
v 7 -2.25 1.5
v 7 -2.375 1.5
v 8 -2.5 1.75
v 8 -2.375 1.75
v 7 -2.375 1.75
v 7 -2.5 1.75
v 8 -2.625 2
v 8 -2.5 2
v 7 -2.5 2
v 7 -2.625 2
v 8 -2.75 2.25
v 8 -2.625 2.25
v 7 -2.625 2.25
v 7 -2.75 2.25
v 8 -2.875 2.5
v 8 -2.75 2.5
v 7 -2.75 2.5
v 7 -2.875 2.5
v 8 -3 2.75
v 8 -2.875 2.75
v 7 -2.875 2.75
v 7 -3 2.75
v 8 -3.125 3
v 8 -3 3
v 7 -3 3
v 7 -3.125 3
v 8 -3.25 3.25
v 8 -3.125 3.25
v 7 -3.125 3.25
v 7 -3.25 3.25
v 8 -3.375 3.5
v 8 -3.25 3.5
v 7 -3.25 3.5
v 7 -3.375 3.5
v 8 -3.5 3.75
v 8 -3.375 3.75
v 7 -3.375 3.75
v 7 -3.5 3.75
v 7 -2 2
v 7 -2 2.25
v 7 -2 2.5
v 7 -2 2.75
v 7 -2 3
v 7 -2 3.25
v 7 -2 3.5
v 7 -2 3.75
v 7 -3.5 4
v 7 -2 4
v 7 -3 4
v 7 -3.625 4.25
v 8 -3.625 4.25
v 8 -3.625 4
v 7 -3.625 4
v 8 -3.75 4.25
v 7 -3.75 4.25
v 8 -3.5 4
v 7 -3.75 4.5
v 8 -3.75 4.5
v 8 -3.875 4.5
v 7 -3.875 4.5
v 7 -3.875 4.75
v 8 -3.875 4.75
v 8 -4 4.75
v 7 -4 4.75
v 7 -4 5
v 8 -4 5
v 8 -2 6
v 7 -2 6
v 7 -4 6
v 8 -4 6
v 8 -2 1.25
v 8 -2 1.5
v 8 -2 1.75
v 8 -2 2
v 8 -2 2.25
v 8 -2 2.5
v 8 -2 2.75
v 8 -2 3
v 8 -2 3.25
v 8 -2 3.5
v 8 -2 3.75
v 8 -3 4
v 8 -2 4
v 8 -3.875 5
v 8 -3.75 5
v 8 -3.625 5
v 8 -3 5
v 8 -3 6
v 7 -3.875 5
v 7 -3.75 5
v 7 -3.625 5
v 7 -3 5
v 7 -3 6
v 0 -2 0
v 0 -2 1
v 1 -2 1
v 1 -2 0
v 0 0 0
v 1 0 0
v 1 0 1
v 0 0 1
v 1 -2 -1
v 0 -2 -1
v 2 -2 -2
v 1 -2 -2
v 2 -2 0
v 0 -2 -2
v -1 -2 -2
v -1 -2 0
v 0 0 -1
v 1 0 -1
v 1 0 -2
v 2 0 -2
v 2 0 0
v -1 0 0
v -1 0 -2
v 0 0 -2
v 0 -2 -5
v -1 -2 -5
v -1 -2 -4
v -1 0 -4
v -1 0 -5
v 0 0 -5
v 2 -2 -5
v 1 -2 -5
v 2 -2 -3
v 1 0 -5
v 2 0 -5
v 2 0 -3
v -1 -2 -6
v 0 -2 -6
v -1 0 -6
v 0 0 -6
v 8 -2 -6
v 7 -2 -6
v 7 -2 -5
v 7 -2 -3
v 7 0 -3
v 7 0 -5
v 7 0 -6
v 8 0 -6
v 7 -2 1.25
v 7 -2 1.5
v 7 -2 1.75
v -1 -5 -7
v -1 -5 -6
v 0 -5 -6
v 0 -5 -7
v -1 0 -7
v 0 0 -7
v 1 -2 -6
v 1 0 -6
v 0 -2 -7
v -1 -2 -7
# 166 texture vertices
vt 3.5 -0.4375
vt 4 0
vt 4 -0.4375
vt 3.5 0
vt 3.5 -0.5
vt 4 -0.5
vt 4 -1
vt 3.5 -1
vt 4 1
vt 3.5 1.0625
vt 3.5 1
vt 4 1.0625
vt 3.5 1.125
vt 4 1.125
vt 3.5 -0.625
vt 4 -0.625
vt 3.5 1.1875
vt 4 1.1875
vt 3.5 -0.75
vt 4 -0.75
vt 3.5 1.25
vt 4 1.25
vt 3.5 -0.875
vt 4 -0.875
vt 3.5 1.3125
vt 4 1.3125
vt 3.5 1.375
vt 4 1.375
vt 3.5 -1.125
vt 4 -1.125
vt 3.5 1.4375
vt 4 1.4375
vt 3.5 -1.25
vt 4 -1.25
vt 3.5 1.5
vt 4 1.5
vt 3.5 -1.375
vt 4 -1.375
vt 3.5 1.5625
vt 4 1.5625
vt 3.5 -1.5
vt 4 -1.5
vt 3.5 1.625
vt 4 1.625
vt 3.5 -1.625
vt 4 -1.625
vt 3.5 1.6875
vt 4 1.6875
vt 3.5 -1.75
vt 4 -1.75
vt 3.5 1.75
vt 4 1.75
vt 3.5 -1.875
vt 4 -1.875
vt 1 1.25
vt 1.125 1
vt 1 1
vt 1 1.3125
vt 1.125 1.3125
vt 1.25 1
vt 1.125 1.375
vt 1.25 1.375
vt 1.375 1
vt 1.25 1.4375
vt 1.375 1.4375
vt 1.5 1
vt 1.375 1.5
vt 1.5 1.5
vt 1.5 1.5625
vt 1.625 1.5625
vt 1.625 1
vt 1.625 1.625
vt 1.75 1.625
vt 1.75 1
vt 1.75 1.6875
vt 1.875 1.6875
vt 1.875 1
vt 2 1.5
vt 2 1
vt 1.875 1.75
vt 2 1.75
vt 4 -2.125
vt 3.5 -2
vt 4 -2
vt 3.5 -2.125
vt 4 1.8125
vt 3.5 1.875
vt 3.5 1.8125
vt 4 1.875
vt 4 -2.25
vt 3.5 -2.25
vt 3.5 1.9375
vt 4 1.9375
vt 4 -2.375
vt 3.5 -2.375
vt 3.5 2
vt 4 2
vt 4 -2.5
vt 3.5 -2.5
vt 3.5 -3
vt 4 -3
vt 0.625 1
vt 0.5 1.0625
vt 0.5 1
vt 0.625 1.0625
vt 0.625 1.125
vt 0.75 1
vt 0.75 1.125
vt 0.75 1.1875
vt 0.875 1
vt 0.875 1.1875
vt 0.875 1.25
vt 2.375 1.9375
vt 2.5 2
vt 2.375 2
vt 2.5 1.9375
vt 2.5 1.875
vt 2.25 1.9375
vt 2.25 1.875
vt 2.125 1.8125
vt 2.5 1.8125
vt 2.125 1.875
vt 2.5 1.5
vt 2 1.8125
vt 3 2
vt 3 1.5
vt 3 1
vt 1 0
vt 0.5 0
vt 0 -0.5
vt 0.5 -0.5
vt 0 0
vt 0 0.5
vt 0.5 0.5
vt 0 1
vt -0.5 0
vt -0.5 1
vt -0.5 2
vt -0.5 2.5
vt 0 2.5
vt 1 1.5
vt 0.5 2.5
vt 1 2.5
vt 0 3
vt -0.5 3
vt 3.5 2.5
vt 3.5 3
vt 4 3
vt -1 1
vt -1 0
vt -2 0
vt -2 1
vt 0.4375 1
vt -1.5 0
vt -1.5 1
vt -3 1
vt -3 0
vt 0 3.5
vt -0.5 3.5
vt 0.5 3
vt -3.5 2.5
vt -3.5 1
vt -3 2.5
vt -2.5 0
vt -3.5 0
vt -2.5 1
# 7 normals
vn 0 1 0
vn 0 -1 0
vn 0 0 1
vn 1 0 0
vn 0 -0.894427 -0.447214
vn -1 0 0
vn 0 0 -1
usemtl mat_1
g Group
s off
f 2/1/1 3/3/1 4/2/1
f 1/4/1 2/1/1 4/2/1
f 6/2/2 7/6/2 8/5/2
f 5/4/2 6/2/2 8/5/2
f 9/5/1 10/6/1 3/3/1
f 2/1/1 9/5/1 3/3/1
f 11/7/2 12/8/2 8/5/2
f 7/6/2 11/7/2 8/5/2
f 10/9/3 9/11/3 14/10/3
f 13/12/3 10/9/3 14/10/3
f 16/12/3 17/10/3 18/13/3
f 15/14/3 16/12/3 18/13/3
f 17/15/1 16/16/1 13/6/1
f 14/5/1 17/15/1 13/6/1
f 20/14/3 21/13/3 22/17/3
f 19/18/3 20/14/3 22/17/3
f 21/19/1 20/20/1 15/16/1
f 18/15/1 21/19/1 15/16/1
f 24/18/3 25/17/3 26/21/3
f 23/22/3 24/18/3 26/21/3
f 25/23/1 24/24/1 19/20/1
f 22/19/1 25/23/1 19/20/1
f 28/22/3 29/21/3 30/25/3
f 27/26/3 28/22/3 30/25/3
f 29/8/1 28/7/1 23/24/1
f 26/23/1 29/8/1 23/24/1
f 32/26/3 33/25/3 34/27/3
f 31/28/3 32/26/3 34/27/3
f 33/29/1 32/30/1 27/7/1
f 30/8/1 33/29/1 27/7/1
f 36/28/3 37/27/3 38/31/3
f 35/32/3 36/28/3 38/31/3
f 37/33/1 36/34/1 31/30/1
f 34/29/1 37/33/1 31/30/1
f 40/32/3 41/31/3 42/35/3
f 39/36/3 40/32/3 42/35/3
f 41/37/1 40/38/1 35/34/1
f 38/33/1 41/37/1 35/34/1
f 44/36/3 45/35/3 46/39/3
f 43/40/3 44/36/3 46/39/3
f 45/41/1 44/42/1 39/38/1
f 42/37/1 45/41/1 39/38/1
f 48/40/3 49/39/3 50/43/3
f 47/44/3 48/40/3 50/43/3
f 49/45/1 48/46/1 43/42/1
f 46/41/1 49/45/1 43/42/1
f 52/44/3 53/43/3 54/47/3
f 51/48/3 52/44/3 54/47/3
f 53/49/1 52/50/1 47/46/1
f 50/45/1 53/49/1 47/46/1
f 56/48/3 57/47/3 58/51/3
f 55/52/3 56/48/3 58/51/3
f 57/53/1 56/54/1 51/50/1
f 54/49/1 57/53/1 51/50/1
f 71/82/1 72/84/1 73/83/1
f 70/85/1 71/82/1 73/83/1
f 71/86/3 70/88/3 75/87/3
f 74/89/3 71/86/3 75/87/3
f 76/84/1 55/54/1 58/53/1
f 67/83/1 76/84/1 58/53/1
f 76/52/3 67/51/3 73/88/3
f 72/86/3 76/52/3 73/88/3
f 78/90/1 74/82/1 75/85/1
f 77/91/1 78/90/1 75/85/1
f 78/89/3 77/87/3 80/92/3
f 79/93/3 78/89/3 80/92/3
f 82/94/1 79/90/1 80/91/1
f 81/95/1 82/94/1 80/91/1
f 82/93/3 81/92/3 84/96/3
f 83/97/3 82/93/3 84/96/3
f 86/98/1 83/94/1 84/95/1
f 85/99/1 86/98/1 84/95/1
f 11/7/5 87/101/5 88/100/5
f 12/8/5 11/7/5 88/100/5
f 89/100/1 90/101/1 86/98/1
f 85/99/1 89/100/1 86/98/1
f 115/130/1 116/131/1 117/129/1
f 114/132/1 115/130/1 117/129/1
f 119/129/2 120/131/2 121/130/2
f 118/132/2 119/129/2 121/130/2
f 123/133/1 114/132/1 117/129/1
f 122/134/1 123/133/1 117/129/1
f 122/134/1 117/129/1 126/128/1
f 125/104/1 122/134/1 126/128/1
f 124/57/1 125/104/1 126/128/1
f 127/135/1 128/137/1 129/136/1
f 123/133/1 127/135/1 129/136/1
f 114/132/1 123/133/1 129/136/1
f 131/134/2 119/129/2 118/132/2
f 130/133/2 131/134/2 118/132/2
f 132/104/2 133/57/2 134/128/2
f 131/134/2 132/104/2 134/128/2
f 119/129/2 131/134/2 134/128/2
f 137/135/2 130/133/2 118/132/2
f 136/137/2 137/135/2 118/132/2
f 135/136/2 136/137/2 118/132/2
f 140/138/1 128/137/1 127/135/1
f 139/139/1 140/138/1 127/135/1
f 138/140/1 139/139/1 127/135/1
f 142/139/2 143/140/2 137/135/2
f 141/138/2 142/139/2 137/135/2
f 136/137/2 141/138/2 137/135/2
f 125/104/1 124/57/1 146/141/1
f 145/142/1 125/104/1 146/141/1
f 144/143/1 145/142/1 146/141/1
f 148/143/2 149/141/2 133/57/2
f 147/142/2 148/143/2 133/57/2
f 132/104/2 147/142/2 133/57/2
f 139/139/1 138/140/1 151/144/1
f 150/145/1 139/139/1 151/144/1
f 153/144/2 143/140/2 142/139/2
f 152/145/2 153/144/2 142/139/2
f 123/133/1 122/134/1 125/104/1
f 127/135/1 123/133/1 125/104/1
f 132/104/2 131/134/2 130/133/2
f 137/135/2 132/104/2 130/133/2
f 157/35/1 1/4/1 4/2/1
f 156/146/1 157/35/1 4/2/1
f 155/147/1 156/146/1 4/2/1
f 154/148/1 155/147/1 4/2/1
f 160/147/2 161/148/2 6/2/2
f 159/146/2 160/147/2 6/2/2
f 158/35/2 159/146/2 6/2/2
f 5/4/2 158/35/2 6/2/2
f 166/145/1 167/144/1 168/158/1
f 165/159/1 166/145/1 168/158/1
f 170/158/2 153/144/2 152/145/2
f 169/159/2 170/158/2 152/145/2
f 150/137/7 151/135/7 167/140/7
f 166/139/7 150/137/7 167/140/7
f 145/142/1 144/143/1 156/146/1
f 171/160/1 145/142/1 156/146/1
f 155/147/1 171/160/1 156/146/1
f 160/147/2 159/146/2 148/143/2
f 172/160/2 160/147/2 148/143/2
f 147/142/2 172/160/2 148/143/2
usemtl mat_2
g Group
s off
f 29/55/4 59/57/4 60/56/4
f 30/58/4 29/55/4 60/56/4
f 33/59/4 30/58/4 60/56/4
f 33/59/4 60/56/4 61/60/4
f 34/61/4 33/59/4 61/60/4
f 37/62/4 34/61/4 61/60/4
f 37/62/4 61/60/4 62/63/4
f 38/64/4 37/62/4 62/63/4
f 41/65/4 38/64/4 62/63/4
f 41/65/4 62/63/4 63/66/4
f 42/67/4 41/65/4 63/66/4
f 45/68/4 42/67/4 63/66/4
f 46/69/4 45/68/4 63/66/4
f 49/70/4 46/69/4 63/66/4
f 64/71/4 49/70/4 63/66/4
f 50/72/4 49/70/4 64/71/4
f 53/73/4 50/72/4 64/71/4
f 65/74/4 53/73/4 64/71/4
f 54/75/4 53/73/4 65/74/4
f 57/76/4 54/75/4 65/74/4
f 66/77/4 57/76/4 65/74/4
f 66/77/4 68/79/4 69/78/4
f 57/76/4 66/77/4 69/78/4
f 58/80/4 57/76/4 69/78/4
f 67/81/4 58/80/4 69/78/4
f 91/102/6 10/104/6 13/103/6
f 16/105/6 91/102/6 13/103/6
f 15/106/6 20/108/6 92/107/6
f 16/105/6 15/106/6 92/107/6
f 91/102/6 16/105/6 92/107/6
f 19/109/6 24/111/6 93/110/6
f 20/108/6 19/109/6 93/110/6
f 92/107/6 20/108/6 93/110/6
f 23/112/6 28/55/6 94/57/6
f 24/111/6 23/112/6 94/57/6
f 93/110/6 24/111/6 94/57/6
f 27/58/6 32/59/6 95/56/6
f 28/55/6 27/58/6 95/56/6
f 94/57/6 28/55/6 95/56/6
f 31/61/6 36/62/6 96/60/6
f 32/59/6 31/61/6 96/60/6
f 95/56/6 32/59/6 96/60/6
f 35/64/6 40/65/6 97/63/6
f 36/62/6 35/64/6 97/63/6
f 96/60/6 36/62/6 97/63/6
f 39/67/6 44/68/6 98/66/6
f 40/65/6 39/67/6 98/66/6
f 97/63/6 40/65/6 98/66/6
f 43/69/6 48/70/6 99/71/6
f 44/68/6 43/69/6 99/71/6
f 98/66/6 44/68/6 99/71/6
f 47/72/6 52/73/6 100/74/6
f 48/70/6 47/72/6 100/74/6
f 99/71/6 48/70/6 100/74/6
f 51/75/6 56/76/6 101/77/6
f 52/73/6 51/75/6 101/77/6
f 100/74/6 52/73/6 101/77/6
f 76/81/6 102/78/6 103/79/6
f 55/80/6 76/81/6 103/79/6
f 56/76/6 55/80/6 103/79/6
f 101/77/6 56/76/6 103/79/6
f 82/113/6 83/115/6 86/114/6
f 104/116/6 82/113/6 86/114/6
f 82/113/6 104/116/6 105/117/6
f 79/118/6 82/113/6 105/117/6
f 78/119/6 79/118/6 105/117/6
f 105/117/6 106/121/6 71/120/6
f 78/119/6 105/117/6 71/120/6
f 74/122/6 78/119/6 71/120/6
f 107/123/6 102/78/6 76/81/6
f 106/121/6 107/123/6 76/81/6
f 71/120/6 106/121/6 76/81/6
f 72/124/6 71/120/6 76/81/6
f 104/116/6 86/114/6 90/125/6
f 105/117/6 104/116/6 90/125/6
f 106/121/6 105/117/6 90/125/6
f 107/123/6 106/121/6 90/125/6
f 108/126/6 107/123/6 90/125/6
f 107/123/6 108/126/6 87/127/6
f 102/78/6 107/123/6 87/127/6
f 103/79/6 102/78/6 87/127/6
f 109/116/4 85/114/4 84/115/4
f 81/113/4 109/116/4 84/115/4
f 80/118/4 77/119/4 110/117/4
f 81/113/4 80/118/4 110/117/4
f 109/116/4 81/113/4 110/117/4
f 75/122/4 70/120/4 111/121/4
f 77/119/4 75/122/4 111/121/4
f 110/117/4 77/119/4 111/121/4
f 67/81/4 69/78/4 112/123/4
f 73/124/4 67/81/4 112/123/4
f 70/120/4 73/124/4 112/123/4
f 111/121/4 70/120/4 112/123/4
f 112/123/4 113/126/4 89/125/4
f 111/121/4 112/123/4 89/125/4
f 110/117/4 111/121/4 89/125/4
f 109/116/4 110/117/4 89/125/4
f 85/114/4 109/116/4 89/125/4
f 69/78/4 68/79/4 88/127/4
f 112/123/4 69/78/4 88/127/4
f 113/126/4 112/123/4 88/127/4
f 62/63/4 61/60/4 60/56/4
f 63/66/4 62/63/4 60/56/4
f 64/71/4 63/66/4 60/56/4
f 65/74/4 64/71/4 60/56/4
f 66/77/4 65/74/4 60/56/4
f 68/79/4 66/77/4 60/56/4
f 88/127/4 68/79/4 60/56/4
f 12/128/4 88/127/4 60/56/4
f 59/57/4 12/128/4 60/56/4
f 101/77/6 103/79/6 87/127/6
f 100/74/6 101/77/6 87/127/6
f 99/71/6 100/74/6 87/127/6
f 98/66/6 99/71/6 87/127/6
f 97/63/6 98/66/6 87/127/6
f 96/60/6 97/63/6 87/127/6
f 95/56/6 96/60/6 87/127/6
f 94/57/6 95/56/6 87/127/6
f 11/128/6 94/57/6 87/127/6
f 93/110/6 94/57/6 11/128/6
f 92/107/6 93/110/6 11/128/6
f 91/102/6 92/107/6 11/128/6
f 10/104/6 91/102/6 11/128/6
f 7/129/6 10/104/6 11/128/6
f 135/132/4 129/135/4 128/149/4
f 136/150/4 135/132/4 128/149/4
f 141/151/4 136/150/4 128/149/4
f 140/152/4 141/151/4 128/149/4
f 9/104/4 162/102/4 17/105/4
f 14/103/4 9/104/4 17/105/4
f 17/105/4 162/102/4 163/107/4
f 18/106/4 17/105/4 163/107/4
f 21/108/4 18/106/4 163/107/4
f 21/108/4 163/107/4 164/110/4
f 22/109/4 21/108/4 164/110/4
f 25/111/4 22/109/4 164/110/4
f 25/111/4 164/110/4 59/57/4
f 26/112/4 25/111/4 59/57/4
f 29/55/4 26/112/4 59/57/4
f 9/104/4 2/153/4 1/135/4
f 162/102/4 9/104/4 1/135/4
f 163/107/4 162/102/4 1/135/4
f 164/110/4 163/107/4 1/135/4
f 59/57/4 164/110/4 1/135/4
f 12/128/4 59/57/4 1/135/4
f 8/129/4 12/128/4 1/135/4
f 5/132/4 8/129/4 1/135/4
f 158/154/4 5/132/4 1/135/4
f 157/155/4 158/154/4 1/135/4
f 10/104/6 7/129/6 6/132/6
f 3/153/6 10/104/6 6/132/6
f 4/135/6 3/153/6 6/132/6
f 154/156/6 4/135/6 6/132/6
f 161/157/6 154/156/6 6/132/6
f 173/135/3 174/137/3 165/139/3
f 168/140/3 173/135/3 165/139/3
f 170/132/3 169/136/3 174/137/3
f 173/135/3 170/132/3 174/137/3
f 165/161/4 174/162/4 150/156/4
f 166/163/4 165/161/4 150/156/4
f 152/157/4 142/164/4 141/151/4
f 169/165/4 152/157/4 141/151/4
f 174/162/4 169/165/4 141/151/4
f 150/156/4 174/162/4 141/151/4
f 139/166/4 150/156/4 141/151/4
f 140/152/4 139/166/4 141/151/4
f 134/132/6 133/150/6 149/154/6
f 126/135/6 134/132/6 149/154/6
f 124/149/6 126/135/6 149/154/6
f 146/155/6 124/149/6 149/154/6
f 160/4/3 172/129/3 171/104/3
f 155/11/3 160/4/3 171/104/3
f 154/9/3 161/2/3 160/4/3
f 155/11/3 154/9/3 160/4/3
f 149/154/6 148/164/6 144/166/6
f 146/155/6 149/154/6 144/166/6
f 159/164/4 158/154/4 157/155/4
f 156/166/4 159/164/4 157/155/4
f 148/128/7 159/4/7 156/11/7
f 144/57/7 148/128/7 156/11/7
f 120/129/6 119/132/6 117/135/6
f 116/104/6 120/129/6 117/135/6
f 117/104/7 119/129/7 134/128/7
f 126/57/7 117/104/7 134/128/7
f 121/129/4 115/104/4 114/135/4
f 118/132/4 121/129/4 114/135/4
f 118/132/7 114/135/7 129/137/7
f 135/136/7 118/132/7 129/137/7
f 151/156/6 173/162/6 168/161/6
f 167/163/6 151/156/6 168/161/6
f 143/164/6 153/157/6 170/165/6
f 137/150/6 143/164/6 170/165/6
f 127/149/6 137/150/6 170/165/6
f 138/166/6 127/149/6 170/165/6
f 151/156/6 138/166/6 170/165/6
f 173/162/6 151/156/6 170/165/6
f 171/156/4 172/157/4 147/164/4
f 145/166/4 171/156/4 147/164/4
f 147/164/4 132/150/4 125/149/4
f 145/166/4 147/164/4 125/149/4
f 132/129/3 137/132/3 127/135/3
f 125/104/3 132/129/3 127/135/3
