# Wavefront OBJ
# Created by fragMOTION 1.3.4
# http://www.fragmosoft.com

mtllib map6.mtl
# 151 vertices
v 3 -2 0
v 3 -2 1
v 7 -2 1
v 7 -2 0.875
v 7 -2 0
v 2 0 0
v 7 0 0
v 7 0 1
v 2 0 1
v 1 0 1
v 2 -2 1
v 1 -2 1
v 8 -2 0.875
v 8 -2 0
v 8 0 0
v 8 0 1
v 8 -2 1
v 8 0 2
v 7 0 2
v 8 -2.125 1
v 7 -2.125 1
v 8 -2.25 1.25
v 8 -2.125 1.25
v 7 -2.125 1.25
v 7 -2.25 1.25
v 8 -2.375 1.5
v 8 -2.25 1.5
v 7 -2.25 1.5
v 7 -2.375 1.5
v 8 -2.5 1.75
v 8 -2.375 1.75
v 7 -2.375 1.75
v 7 -2.5 1.75
v 8 -2.625 2
v 8 -2.5 2
v 7 -2.5 2
v 7 -2.625 2
v 8 -2.75 2.25
v 8 -2.625 2.25
v 7 -2.625 2.25
v 7 -2.75 2.25
v 8 -2.875 2.5
v 8 -2.75 2.5
v 7 -2.75 2.5
v 7 -2.875 2.5
v 8 -3 2.75
v 8 -2.875 2.75
v 7 -2.875 2.75
v 7 -3 2.75
v 8 -3.125 3
v 8 -3 3
v 7 -3 3
v 7 -3.125 3
v 8 -3.25 3.25
v 8 -3.125 3.25
v 7 -3.125 3.25
v 7 -3.25 3.25
v 8 -3.375 3.5
v 8 -3.25 3.5
v 7 -3.25 3.5
v 7 -3.375 3.5
v 8 -3.5 3.75
v 8 -3.375 3.75
v 7 -3.375 3.75
v 7 -3.5 3.75
v 7 -3.625 4.25
v 8 -3.625 4.25
v 8 -3.625 4
v 7 -3.625 4
v 8 -3.75 4.25
v 7 -3.75 4.25
v 7 -3.5 4
v 8 -3.5 4
v 7 -3.75 4.5
v 8 -3.75 4.5
v 8 -3.875 4.5
v 7 -3.875 4.5
v 7 -3.875 4.75
v 8 -3.875 4.75
v 8 -4 4.75
v 7 -4 4.75
v 7 -4 5
v 8 -4 5
v 8 -2 6
v 7 -2 6
v 7 -4 6
v 8 -4 6
v 8 -2 1.25
v 8 -2 1.5
v 8 -2 1.75
v 8 -2 2
v 8 -2 2.25
v 8 -2 2.5
v 8 -2 2.75
v 8 -2 3
v 8 -2 3.25
v 8 -2 3.5
v 8 -2 3.75
v 8 -3 4
v 8 -2 4
v 8 -3.875 5
v 8 -3.75 5
v 8 -3.625 5
v 8 -3 5
v 8 -3 6
v 0 -2 0
v 0 -2 1
v 1 -2 0
v 0 0 0
v 1 0 0
v 0 0 1
v 1 -2 -4
v 0 -2 -4
v 1 -2 -1
v 1 -2 -2
v 1 -2 -3
v 0 0 -4
v 1 0 -4
v 1 0 -3
v 1 0 -2
v 1 0 -1
v 8 -2 -4
v 7 -2 -4
v 7 -2 -3
v 8 -2 -3
v 7 0 -4
v 8 0 -4
v 8 0 -3
v 7 0 -3
v 7 -2 -2
v 7 -2 -1
v 7 0 -2
v 7 0 -1
v 7 -2 2
v 7 -2 1.75
v 7 -2 1.5
v 7 -2 1.25
v 7 -2 4
v 7 -2 3.75
v 7 -2 3.5
v 7 -2 3.25
v 7 -2 3
v 7 -2 2.75
v 7 -2 2.5
v 7 -2 2.25
v 7 -3 4
v 7 -3.875 5
v 7 -3.75 5
v 7 -3.625 5
v 7 -3 5
v 7 -3 6
# 150 texture vertices
vt 3.5 -0.5
vt 3.5 0
vt 3.5 -0.4375
vt 1.5 -0.5
vt 1.5 0
vt 1 -0.5
vt 1 0
vt 0.5 1
vt 1 1
vt 0.5 0
vt 4 0
vt 4 -0.4375
vt 4 -0.5
vt 4 -1
vt 3.5 -1
vt 4 1
vt 3.5 1.0625
vt 3.5 1
vt 4 1.0625
vt 3.5 1.125
vt 4 1.125
vt 3.5 -0.625
vt 4 -0.625
vt 3.5 1.1875
vt 4 1.1875
vt 3.5 -0.75
vt 4 -0.75
vt 3.5 1.25
vt 4 1.25
vt 3.5 -0.875
vt 4 -0.875
vt 3.5 1.3125
vt 4 1.3125
vt 3.5 1.375
vt 4 1.375
vt 3.5 -1.125
vt 4 -1.125
vt 3.5 1.4375
vt 4 1.4375
vt 3.5 -1.25
vt 4 -1.25
vt 3.5 1.5
vt 4 1.5
vt 3.5 -1.375
vt 4 -1.375
vt 3.5 1.5625
vt 4 1.5625
vt 3.5 -1.5
vt 4 -1.5
vt 3.5 1.625
vt 4 1.625
vt 3.5 -1.625
vt 4 -1.625
vt 3.5 1.6875
vt 4 1.6875
vt 3.5 -1.75
vt 4 -1.75
vt 3.5 1.75
vt 4 1.75
vt 3.5 -1.875
vt 4 -1.875
vt 4 -2.125
vt 3.5 -2
vt 4 -2
vt 3.5 -2.125
vt 4 1.8125
vt 3.5 1.875
vt 3.5 1.8125
vt 4 1.875
vt 4 -2.25
vt 3.5 -2.25
vt 3.5 1.9375
vt 4 1.9375
vt 4 -2.375
vt 3.5 -2.375
vt 3.5 2
vt 4 2
vt 4 -2.5
vt 3.5 -2.5
vt 3.5 -3
vt 4 -3
vt 0.625 1
vt 0.5 1.0625
vt 0.625 1.0625
vt 0.625 1.125
vt 0.75 1
vt 0.75 1.125
vt 0.75 1.1875
vt 0.875 1
vt 0.875 1.1875
vt 0.875 1.25
vt 1 1.25
vt 1 1.3125
vt 1.125 1
vt 1.125 1.3125
vt 1.125 1.375
vt 1.25 1
vt 1.25 1.375
vt 1.25 1.4375
vt 1.375 1
vt 1.375 1.4375
vt 1.375 1.5
vt 1.5 1
vt 1.5 1.5
vt 1.5 1.5625
vt 1.625 1
vt 1.625 1.5625
vt 1.625 1.625
vt 1.75 1
vt 1.75 1.625
vt 1.75 1.6875
vt 1.875 1
vt 1.875 1.6875
vt 2 1.75
vt 2 1
vt 2 1.5
vt 1.875 1.75
vt 2.375 1.9375
vt 2.5 2
vt 2.375 2
vt 2.5 1.9375
vt 2.5 1.875
vt 2.25 1.9375
vt 2.25 1.875
vt 2.125 1.8125
vt 2.5 1.8125
vt 2.125 1.875
vt 2.5 1.5
vt 2 1.8125
vt 3 2
vt 3 1.5
vt 3 1
vt 0 0
vt 0.4375 1
vt 0 1
vt 0.5 -0.5
vt 0 -0.5
vt 0.5 0.5
vt 0.5 1.5
vt 0 2
vt 0.5 2
vt 3.5 0.5
vt -2 1
vt -2 0
vt -1.5 0
vt -1.5 1
vt -1 0
vt -1 1
vt -0.5 1
vt -0.5 0
# 7 normals
vn 0 1 0
vn 0 -1 0
vn 0 0 -1
vn 0 0 1
vn 0 -0.894427 -0.447214
vn -1 0 0
vn 1 0 0
usemtl mat_1
g Group
s off
f 3/1/1 4/3/1 5/2/1
f 2/4/1 3/1/1 5/2/1
f 1/5/1 2/4/1 5/2/1
f 7/2/2 8/1/2 9/6/2
f 6/7/2 7/2/2 9/6/2
f 4/3/1 13/12/1 14/11/1
f 5/2/1 4/3/1 14/11/1
f 15/11/2 16/13/2 8/1/2
f 7/2/2 15/11/2 8/1/2
f 3/1/1 17/13/1 13/12/1
f 4/3/1 3/1/1 13/12/1
f 18/14/2 19/15/2 8/1/2
f 16/13/2 18/14/2 8/1/2
f 17/16/4 3/18/4 21/17/4
f 20/19/4 17/16/4 21/17/4
f 23/19/4 24/17/4 25/20/4
f 22/21/4 23/19/4 25/20/4
f 24/22/1 23/23/1 20/13/1
f 21/1/1 24/22/1 20/13/1
f 27/21/4 28/20/4 29/24/4
f 26/25/4 27/21/4 29/24/4
f 28/26/1 27/27/1 22/23/1
f 25/22/1 28/26/1 22/23/1
f 31/25/4 32/24/4 33/28/4
f 30/29/4 31/25/4 33/28/4
f 32/30/1 31/31/1 26/27/1
f 29/26/1 32/30/1 26/27/1
f 35/29/4 36/28/4 37/32/4
f 34/33/4 35/29/4 37/32/4
f 36/15/1 35/14/1 30/31/1
f 33/30/1 36/15/1 30/31/1
f 39/33/4 40/32/4 41/34/4
f 38/35/4 39/33/4 41/34/4
f 40/36/1 39/37/1 34/14/1
f 37/15/1 40/36/1 34/14/1
f 43/35/4 44/34/4 45/38/4
f 42/39/4 43/35/4 45/38/4
f 44/40/1 43/41/1 38/37/1
f 41/36/1 44/40/1 38/37/1
f 47/39/4 48/38/4 49/42/4
f 46/43/4 47/39/4 49/42/4
f 48/44/1 47/45/1 42/41/1
f 45/40/1 48/44/1 42/41/1
f 51/43/4 52/42/4 53/46/4
f 50/47/4 51/43/4 53/46/4
f 52/48/1 51/49/1 46/45/1
f 49/44/1 52/48/1 46/45/1
f 55/47/4 56/46/4 57/50/4
f 54/51/4 55/47/4 57/50/4
f 56/52/1 55/53/1 50/49/1
f 53/48/1 56/52/1 50/49/1
f 59/51/4 60/50/4 61/54/4
f 58/55/4 59/51/4 61/54/4
f 60/56/1 59/57/1 54/53/1
f 57/52/1 60/56/1 54/53/1
f 63/55/4 64/54/4 65/58/4
f 62/59/4 63/55/4 65/58/4
f 64/60/1 63/61/1 58/57/1
f 61/56/1 64/60/1 58/57/1
f 67/62/1 68/64/1 69/63/1
f 66/65/1 67/62/1 69/63/1
f 67/66/4 66/68/4 71/67/4
f 70/69/4 67/66/4 71/67/4
f 73/64/1 62/61/1 65/60/1
f 72/63/1 73/64/1 65/60/1
f 73/59/4 72/58/4 69/68/4
f 68/66/4 73/59/4 69/68/4
f 75/70/1 70/62/1 71/65/1
f 74/71/1 75/70/1 71/65/1
f 75/69/4 74/67/4 77/72/4
f 76/73/4 75/69/4 77/72/4
f 79/74/1 76/70/1 77/71/1
f 78/75/1 79/74/1 77/71/1
f 79/73/4 78/72/4 81/76/4
f 80/77/4 79/73/4 81/76/4
f 83/78/1 80/74/1 81/75/1
f 82/79/1 83/78/1 81/75/1
f 18/14/5 84/81/5 85/80/5
f 19/15/5 18/14/5 85/80/5
f 86/80/1 87/81/1 83/78/1
f 82/79/1 86/80/1 83/78/1
f 2/4/1 1/5/1 108/10/1
f 11/6/1 2/4/1 108/10/1
f 12/136/1 11/6/1 108/10/1
f 107/137/1 12/136/1 108/10/1
f 107/137/1 107/137/1 108/10/1
f 106/133/1 107/137/1 108/10/1
f 9/6/2 10/136/2 111/137/2
f 6/7/2 9/6/2 111/137/2
f 110/10/2 6/7/2 111/137/2
f 109/133/2 110/10/2 111/137/2
f 114/138/1 115/8/1 116/139/1
f 108/10/1 114/138/1 116/139/1
f 106/133/1 108/10/1 116/139/1
f 113/140/1 106/133/1 116/139/1
f 112/141/1 113/140/1 116/139/1
f 120/8/2 121/138/2 110/10/2
f 119/139/2 120/8/2 110/10/2
f 118/141/2 119/139/2 110/10/2
f 117/140/2 118/141/2 110/10/2
f 109/133/2 117/140/2 110/10/2
f 116/139/1 124/42/1 125/43/1
f 112/141/1 116/139/1 125/43/1
f 123/76/1 112/141/1 125/43/1
f 122/77/1 123/76/1 125/43/1
f 127/77/2 128/43/2 129/42/2
f 126/76/2 127/77/2 129/42/2
f 118/141/2 126/76/2 129/42/2
f 119/139/2 118/141/2 129/42/2
f 115/8/1 114/138/1 131/142/1
f 130/18/1 115/8/1 131/142/1
f 132/18/2 133/142/2 121/138/2
f 120/8/2 132/18/2 121/138/2
f 131/142/1 5/2/1 14/11/1
f 130/18/1 131/142/1 14/11/1
f 124/42/1 130/18/1 14/11/1
f 125/43/1 124/42/1 14/11/1
f 129/42/2 128/43/2 15/11/2
f 132/18/2 129/42/2 15/11/2
f 133/142/2 132/18/2 15/11/2
f 7/2/2 133/142/2 15/11/2
usemtl mat_2
g Group
s off
f 9/7/3 11/9/3 12/8/3
f 10/10/3 9/7/3 12/8/3
f 88/82/6 17/8/6 20/83/6
f 23/84/6 88/82/6 20/83/6
f 22/85/6 27/87/6 89/86/6
f 23/84/6 22/85/6 89/86/6
f 88/82/6 23/84/6 89/86/6
f 26/88/6 31/90/6 90/89/6
f 27/87/6 26/88/6 90/89/6
f 89/86/6 27/87/6 90/89/6
f 30/91/6 35/92/6 91/9/6
f 31/90/6 30/91/6 91/9/6
f 90/89/6 31/90/6 91/9/6
f 34/93/6 39/95/6 92/94/6
f 35/92/6 34/93/6 92/94/6
f 91/9/6 35/92/6 92/94/6
f 38/96/6 43/98/6 93/97/6
f 39/95/6 38/96/6 93/97/6
f 92/94/6 39/95/6 93/97/6
f 42/99/6 47/101/6 94/100/6
f 43/98/6 42/99/6 94/100/6
f 93/97/6 43/98/6 94/100/6
f 46/102/6 51/104/6 95/103/6
f 47/101/6 46/102/6 95/103/6
f 94/100/6 47/101/6 95/103/6
f 50/105/6 55/107/6 96/106/6
f 51/104/6 50/105/6 96/106/6
f 95/103/6 51/104/6 96/106/6
f 54/108/6 59/110/6 97/109/6
f 55/107/6 54/108/6 97/109/6
f 96/106/6 55/107/6 97/109/6
f 58/111/6 63/113/6 98/112/6
f 59/110/6 58/111/6 98/112/6
f 97/109/6 59/110/6 98/112/6
f 73/114/6 99/116/6 100/115/6
f 62/117/6 73/114/6 100/115/6
f 63/113/6 62/117/6 100/115/6
f 98/112/6 63/113/6 100/115/6
f 79/118/6 80/120/6 83/119/6
f 101/121/6 79/118/6 83/119/6
f 79/118/6 101/121/6 102/122/6
f 76/123/6 79/118/6 102/122/6
f 75/124/6 76/123/6 102/122/6
f 102/122/6 103/126/6 67/125/6
f 75/124/6 102/122/6 67/125/6
f 70/127/6 75/124/6 67/125/6
f 104/128/6 99/116/6 73/114/6
f 103/126/6 104/128/6 73/114/6
f 67/125/6 103/126/6 73/114/6
f 68/129/6 67/125/6 73/114/6
f 101/121/6 83/119/6 87/130/6
f 102/122/6 101/121/6 87/130/6
f 103/126/6 102/122/6 87/130/6
f 104/128/6 103/126/6 87/130/6
f 105/131/6 104/128/6 87/130/6
f 104/128/6 105/131/6 84/132/6
f 99/116/6 104/128/6 84/132/6
f 100/115/6 99/116/6 84/132/6
f 98/112/6 100/115/6 84/132/6
f 97/109/6 98/112/6 84/132/6
f 96/106/6 97/109/6 84/132/6
f 95/103/6 96/106/6 84/132/6
f 94/100/6 95/103/6 84/132/6
f 93/97/6 94/100/6 84/132/6
f 92/94/6 93/97/6 84/132/6
f 91/9/6 92/94/6 84/132/6
f 18/7/6 91/9/6 84/132/6
f 90/89/6 91/9/6 18/7/6
f 89/86/6 90/89/6 18/7/6
f 88/82/6 89/86/6 18/7/6
f 17/8/6 88/82/6 18/7/6
f 16/10/6 17/8/6 18/7/6
f 17/8/6 16/10/6 15/133/6
f 13/134/6 17/8/6 15/133/6
f 14/135/6 13/134/6 15/133/6
f 111/10/7 107/8/7 106/135/7
f 109/133/7 111/10/7 106/135/7
f 109/133/7 106/135/7 113/143/7
f 117/144/7 109/133/7 113/143/7
f 122/16/4 127/11/4 126/2/4
f 123/18/4 122/16/4 126/2/4
f 126/2/4 118/10/4 117/133/4
f 123/18/4 126/2/4 117/133/4
f 112/8/4 123/18/4 117/133/4
f 113/135/4 112/8/4 117/133/4
f 15/133/6 128/145/6 127/144/6
f 14/135/6 15/133/6 127/144/6
f 125/146/6 14/135/6 127/144/6
f 122/143/6 125/146/6 127/144/6
f 120/147/6 119/145/6 116/146/6
f 115/148/6 120/147/6 116/146/6
f 132/147/7 130/148/7 124/146/7
f 129/145/7 132/147/7 124/146/7
f 129/2/3 124/18/3 116/8/3
f 119/10/3 129/2/3 116/8/3
f 132/2/4 120/10/4 115/8/4
f 130/18/4 132/2/4 115/8/4
f 110/133/6 121/150/6 114/149/6
f 108/135/6 110/133/6 114/149/6
f 7/133/7 5/135/7 131/149/7
f 133/150/7 7/133/7 131/149/7
f 133/2/3 131/18/3 114/8/3
f 121/10/3 133/2/3 114/8/3
f 7/2/4 6/7/4 110/10/4
f 5/18/4 7/2/4 110/10/4
f 1/103/4 5/18/4 110/10/4
f 108/8/4 1/103/4 110/10/4
f 137/82/7 3/8/7 8/10/7
f 136/86/7 137/82/7 8/10/7
f 135/89/7 136/86/7 8/10/7
f 134/9/7 135/89/7 8/10/7
f 19/7/7 134/9/7 8/10/7
f 3/8/7 137/82/7 24/84/7
f 21/83/7 3/8/7 24/84/7
f 24/84/7 137/82/7 136/86/7
f 25/85/7 24/84/7 136/86/7
f 28/87/7 25/85/7 136/86/7
f 28/87/7 136/86/7 135/89/7
f 29/88/7 28/87/7 135/89/7
f 32/90/7 29/88/7 135/89/7
f 32/90/7 135/89/7 134/9/7
f 33/91/7 32/90/7 134/9/7
f 36/92/7 33/91/7 134/9/7
f 11/9/3 9/7/3 8/2/3
f 2/103/3 11/9/3 8/2/3
f 2/103/3 2/103/3 8/2/3
f 3/18/3 2/103/3 8/2/3
f 145/94/7 134/9/7 19/7/7
f 144/97/7 145/94/7 19/7/7
f 143/100/7 144/97/7 19/7/7
f 142/103/7 143/100/7 19/7/7
f 141/106/7 142/103/7 19/7/7
f 140/109/7 141/106/7 19/7/7
f 139/112/7 140/109/7 19/7/7
f 138/115/7 139/112/7 19/7/7
f 85/132/7 138/115/7 19/7/7
f 37/93/7 36/92/7 134/9/7
f 40/95/7 37/93/7 134/9/7
f 145/94/7 40/95/7 134/9/7
f 41/96/7 40/95/7 145/94/7
f 44/98/7 41/96/7 145/94/7
f 144/97/7 44/98/7 145/94/7
f 45/99/7 44/98/7 144/97/7
f 48/101/7 45/99/7 144/97/7
f 143/100/7 48/101/7 144/97/7
f 48/101/7 143/100/7 142/103/7
f 49/102/7 48/101/7 142/103/7
f 52/104/7 49/102/7 142/103/7
f 53/105/7 52/104/7 142/103/7
f 56/107/7 53/105/7 142/103/7
f 141/106/7 56/107/7 142/103/7
f 57/108/7 56/107/7 141/106/7
f 60/110/7 57/108/7 141/106/7
f 140/109/7 60/110/7 141/106/7
f 61/111/7 60/110/7 140/109/7
f 64/113/7 61/111/7 140/109/7
f 139/112/7 64/113/7 140/109/7
f 139/112/7 138/115/7 146/116/7
f 64/113/7 139/112/7 146/116/7
f 65/117/7 64/113/7 146/116/7
f 72/114/7 65/117/7 146/116/7
f 147/121/7 82/119/7 81/120/7
f 78/118/7 147/121/7 81/120/7
f 77/123/7 74/124/7 148/122/7
f 78/118/7 77/123/7 148/122/7
f 147/121/7 78/118/7 148/122/7
f 71/127/7 66/125/7 149/126/7
f 74/124/7 71/127/7 149/126/7
f 148/122/7 74/124/7 149/126/7
f 69/129/7 72/114/7 146/116/7
f 66/125/7 69/129/7 146/116/7
f 149/126/7 66/125/7 146/116/7
f 150/128/7 149/126/7 146/116/7
f 149/126/7 150/128/7 151/131/7
f 148/122/7 149/126/7 151/131/7
f 147/121/7 148/122/7 151/131/7
f 82/119/7 147/121/7 151/131/7
f 86/130/7 82/119/7 151/131/7
f 146/116/7 138/115/7 85/132/7
f 150/128/7 146/116/7 85/132/7
f 151/131/7 150/128/7 85/132/7
